<?xml version="1.0" encoding="UTF-8" standalone="no"?>
<!-- Created with Inkscape (http://www.inkscape.org/) -->

<svg
   width="10.847917mm"
   height="16.139584mm"
   viewBox="0 0 10.847917 16.139584"
   version="1.1"
   id="heart6"
   xmlns="http://www.w3.org/2000/svg"
   xmlns:svg="http://www.w3.org/2000/svg">
  <defs
     id="defs3295" />
  <g
     id="layer1"
     transform="translate(-86.649624,-148.13286)">
    <g
       id="g7753"
       transform="matrix(0.26458333,0,0,0.26458333,17.990266,-74.609837)">
      <rect
         rx="10"
         ry="12"
         y="842.36218"
         x="259.99994"
         height="60"
         width="40"
         id="rect3050-0-7-7"
         style="fill:#ffffff;fill-opacity:1;stroke:#000000;stroke-width:1;stroke-linejoin:round;stroke-miterlimit:4;stroke-dasharray:none;stroke-opacity:1" />
      <text
         id="text3005-98"
         y="866.98938"
         x="269.93869"
         style="font-style:normal;font-variant:normal;font-weight:bold;font-stretch:normal;line-height:0%;font-family:Verdana;-inkscape-font-specification:'Verdana Bold';text-align:start;letter-spacing:0px;word-spacing:0px;writing-mode:lr-tb;text-anchor:start;fill:#ff0000;fill-opacity:1;stroke:none"
         xml:space="preserve"><tspan
           y="866.98938"
           x="269.93869"
           id="tspan3007-8"
           style="font-size:28px;line-height:1.25">6</tspan></text>
      <path
         id="path30-1"
         d="m 279.89968,897.81415 c -1.64997,-5.74499 -6.11886,-10.03946 -9.7814,-14.60702 -1.91942,-2.30876 -3.73635,-5.29811 -2.92648,-8.38314 0.93499,-3.25115 4.88046,-5.06618 8.09498,-3.99453 2.14715,0.65157 3.88697,2.34601 4.71632,4.37157 0.74028,-1.11433 1.32155,-2.36964 2.46728,-3.15987 2.75288,-2.25984 7.382,-1.91706 9.56285,0.95372 1.60647,2.01793 1.26275,4.83463 0.18395,7.00549 -1.78465,3.75778 -5.04152,6.53692 -7.50712,9.84164 -1.86578,2.38567 -3.54282,4.98205 -4.4109,7.88678 -0.0595,0.13835 -0.29562,0.24524 -0.39948,0.0853 z"
         style="fill:#ff0000;fill-opacity:1" />
    </g>
  </g>
</svg>
