<?xml version="1.0" encoding="UTF-8" standalone="no"?>
<!-- Created with Inkscape (http://www.inkscape.org/) -->

<svg
   width="10.847917mm"
   height="16.139584mm"
   viewBox="0 0 10.847917 16.139584"
   version="1.1"
   id="heart8"
   xmlns="http://www.w3.org/2000/svg"
   xmlns:svg="http://www.w3.org/2000/svg">
  <defs
     id="defs3411" />
  <g
     id="layer1"
     transform="translate(86.749651,-158.16423)">
    <g
       id="g7741"
       transform="matrix(0.26458333,0,0,0.26458333,-181.86735,-64.578474)">
      <rect
         rx="10"
         ry="12"
         y="842.36218"
         x="359.99997"
         height="60"
         width="40"
         id="rect3050-0-6-3"
         style="fill:#ffffff;fill-opacity:1;stroke:#000000;stroke-width:1;stroke-linejoin:round;stroke-miterlimit:4;stroke-dasharray:none;stroke-opacity:1" />
      <text
         id="text3013-7"
         y="866.94836"
         x="370.65298"
         style="font-style:normal;font-variant:normal;font-weight:bold;font-stretch:normal;line-height:0%;font-family:Verdana;-inkscape-font-specification:'Verdana Bold';text-align:start;letter-spacing:0px;word-spacing:0px;writing-mode:lr-tb;text-anchor:start;fill:#ff0000;fill-opacity:1;stroke:none"
         xml:space="preserve"><tspan
           y="866.94836"
           x="370.65298"
           id="tspan3015-8"
           style="font-size:28px;line-height:1.25">8</tspan></text>
      <path
         id="path30-21"
         d="m 380.26149,897.89963 c -1.72784,-5.85641 -6.40771,-10.23418 -10.24315,-14.89032 -2.01004,-2.35355 -3.91275,-5.40087 -3.06464,-8.54575 0.97912,-3.31419 5.11086,-5.16444 8.47713,-4.072 2.24852,0.66421 4.07047,2.39151 4.93899,4.45636 0.77522,-1.13594 1.38393,-2.4156 2.58375,-3.22116 2.88283,-2.30367 7.73048,-1.95423 10.0143,0.97222 1.68232,2.05708 1.32237,4.92841 0.19264,7.14137 -1.8689,3.83066 -5.27954,6.6637 -7.86153,10.03252 -1.95385,2.43195 -3.71008,5.07868 -4.61914,8.03975 -0.0624,0.14103 -0.30956,0.24999 -0.41835,0.087 z"
         style="fill:#ff0000;fill-opacity:1" />
    </g>
  </g>
</svg>
