<?xml version="1.0" encoding="UTF-8" standalone="no"?>
<!-- Created with Inkscape (http://www.inkscape.org/) -->

<svg
   width="10.847917mm"
   height="16.139584mm"
   viewBox="0 0 10.847917 16.139584"
   version="1.1"
   id="heart"
   xmlns="http://www.w3.org/2000/svg"
   xmlns:svg="http://www.w3.org/2000/svg">
  <defs
     id="defs3838" />
  <g
     id="layer1"
     transform="translate(10.797907,-119.47183)">
    <g
       id="g7418"
       transform="matrix(0.26458333,0,0,0.26458333,-198.51978,-103.27087)">
      <rect
         rx="10"
         ry="12"
         y="842.36218"
         x="710"
         height="60"
         width="40"
         id="rect3050-0-3-3-4"
         style="fill:#ffffff;fill-opacity:1;stroke:#000000;stroke-width:1;stroke-linejoin:round;stroke-miterlimit:4;stroke-dasharray:none;stroke-opacity:1" />
      <path
         id="path30-0-8"
         d="m 729.92264,897.9012 c -1.64997,-5.74497 -6.11886,-10.03944 -9.78139,-14.607 -1.91943,-2.30875 -3.73636,-5.29809 -2.92649,-8.38313 0.93499,-3.25113 4.88046,-5.06619 8.09498,-3.99453 2.14715,0.65158 3.88697,2.34601 4.71632,4.37157 0.74028,-1.11432 1.32156,-2.36963 2.46728,-3.15987 2.75288,-2.25984 7.382,-1.91705 9.56285,0.95373 1.60647,2.01793 1.26275,4.83463 0.18395,7.00548 -1.78465,3.75778 -5.04152,6.53691 -7.50712,9.84163 -1.86578,2.38567 -3.54282,4.98209 -4.4109,7.88675 -0.0595,0.13842 -0.29562,0.24529 -0.39948,0.0853 z"
         style="fill:#ff0000;fill-opacity:1" />
    </g>
  </g>
</svg>
