<?xml version="1.0" encoding="UTF-8" standalone="no"?>
<!-- Created with Inkscape (http://www.inkscape.org/) -->

<svg
   width="10.847917mm"
   height="16.139584mm"
   viewBox="0 0 10.847917 16.139584"
   version="1.1"
   id="heart10"
   xmlns="http://www.w3.org/2000/svg"
   xmlns:svg="http://www.w3.org/2000/svg">
  <defs
     id="defs3529" />
  <g
     id="layer1"
     transform="translate(47.698988,-158.16423)">
    <g
       id="g7727"
       transform="matrix(0.26458333,0,0,0.26458333,-169.27502,-64.578474)">
      <rect
         rx="10"
         ry="12"
         y="842.36218"
         x="459.99997"
         height="60"
         width="40"
         id="rect3050-0-22-1"
         style="fill:#ffffff;fill-opacity:1;stroke:#000000;stroke-width:1;stroke-linejoin:round;stroke-miterlimit:4;stroke-dasharray:none;stroke-opacity:1" />
      <text
         id="text3021-7"
         y="867.41309"
         x="461.07138"
         style="font-style:normal;font-variant:normal;font-weight:bold;font-stretch:normal;line-height:0%;font-family:Verdana;-inkscape-font-specification:'Verdana Bold';text-align:start;letter-spacing:0px;word-spacing:0px;writing-mode:lr-tb;text-anchor:start;fill:#ff0000;fill-opacity:1;stroke:none"
         xml:space="preserve"><tspan
           y="867.41309"
           x="461.07138"
           id="tspan3023-1"
           style="font-size:28px;line-height:1.25">1</tspan></text>
      <text
         id="text4158-8"
         y="866.98938"
         x="477.85712"
         style="font-style:normal;font-variant:normal;font-weight:bold;font-stretch:normal;line-height:0%;font-family:Verdana;-inkscape-font-specification:'Verdana Bold';text-align:start;letter-spacing:0px;word-spacing:0px;writing-mode:lr-tb;text-anchor:start;fill:#ff0000;fill-opacity:1;stroke:none"
         xml:space="preserve"><tspan
           y="866.98938"
           x="477.85712"
           id="tspan4160-4"
           style="font-size:28px;line-height:1.25">0</tspan></text>
      <path
         id="path30-7"
         d="m 480.41495,897.81417 c -1.64996,-5.74506 -6.11885,-10.03946 -9.78139,-14.60708 -1.91943,-2.30875 -3.73636,-5.29812 -2.92648,-8.38313 0.93499,-3.25117 4.88046,-5.06616 8.09498,-3.99453 2.14714,0.65156 3.88697,2.34597 4.71632,4.37154 0.74028,-1.11433 1.32155,-2.36967 2.46728,-3.15984 2.75287,-2.25983 7.38199,-1.91708 9.56284,0.95373 1.60648,2.01789 1.26276,4.83459 0.18396,7.00548 -1.78465,3.75777 -5.04154,6.53697 -7.50712,9.84166 -1.86578,2.38568 -3.54283,4.98203 -4.4109,7.88679 -0.0596,0.13833 -0.29562,0.2452 -0.39949,0.0853 z"
         style="fill:#ff0000;fill-opacity:1" />
    </g>
  </g>
</svg>
