<?xml version="1.0" encoding="UTF-8" standalone="no"?>
<!-- Created with Inkscape (http://www.inkscape.org/) -->

<svg
   width="10.824863mm"
   height="16.164837mm"
   viewBox="0 0 10.824863 16.164837"
   version="1.1"
   id="clubace"
   xmlns="http://www.w3.org/2000/svg"
   xmlns:svg="http://www.w3.org/2000/svg">
  <defs
     id="defs5082" />
  <g
     id="layer1"
     transform="translate(17.593373,-82.199848)">
    <g
       id="g7505"
       transform="matrix(0.26458333,0,0,0.26458333,-20.118441,-177.57189)">
      <rect
         transform="matrix(1,0,0,1.2,0,-208.47244)"
         rx="10"
         ry="10"
         y="992.36218"
         x="10"
         height="50"
         width="40"
         id="rect3050"
         style="fill:#ffffff;fill-opacity:1;stroke:#000000;stroke-width:0.912871;stroke-linejoin:round;stroke-miterlimit:4;stroke-dasharray:none;stroke-opacity:1" />
      <text
         id="text2985"
         y="1007.413"
         x="19.629303"
         style="font-style:normal;font-variant:normal;font-weight:bold;font-stretch:normal;line-height:0%;font-family:Verdana;-inkscape-font-specification:'Verdana Bold';text-align:start;letter-spacing:0px;word-spacing:0px;writing-mode:lr-tb;text-anchor:start;fill:#000000;fill-opacity:1;stroke:none"
         xml:space="preserve"><tspan
           y="1007.413"
           x="19.629303"
           id="tspan2987"
           style="font-size:28px;line-height:1.25">A</tspan></text>
      <path
         style="color:#000000;display:block;overflow:visible;visibility:visible;fill:#000000;fill-opacity:1;fill-rule:nonzero;stroke:#000000;stroke-width:0.134058;stroke-linecap:butt;stroke-linejoin:miter;stroke-miterlimit:4;stroke-dashoffset:0;stroke-opacity:1;marker:none"
         d="m 27.971847,1022.4329 c -4.286858,-2.1123 -10.592701,0.4071 -9.100742,6.0907 1.453918,5.5386 7.73279,4.3231 9.904016,0.9516 -0.905805,6.3925 -2.496606,7.3877 -3.4501,8.7753 h 10.123067 c -1.025672,-1.4839 -2.88812,-2.3828 -3.980329,-8.8629 2.187847,3.3658 8.765075,4.5326 10.197987,-0.9259 1.409567,-5.3697 -4.944298,-8.4276 -9.169464,-5.9968 4.051531,-2.8063 5.50654,-12.0228 -2.167058,-12.0228 -7.749348,0 -6.456397,9.3966 -2.357377,11.9908 z"
         id="rect3667" />
    </g>
  </g>
</svg>
