<?xml version="1.0" encoding="UTF-8" standalone="no"?>
<!-- Created with Inkscape (http://www.inkscape.org/) -->

<svg
   width="10.847917mm"
   height="16.139584mm"
   viewBox="0 0 10.847917 16.139584"
   version="1.1"
   id="heartquestion"
   xmlns="http://www.w3.org/2000/svg"
   xmlns:svg="http://www.w3.org/2000/svg">
  <defs
     id="defs3782" />
  <g
     id="layer1"
     transform="translate(31.577154,-174.64432)">
    <g
       id="g7703"
       transform="matrix(0.26458333,0,0,0.26458333,-206.06986,-48.098378)">
      <rect
         rx="10"
         ry="12"
         y="842.36218"
         x="660"
         height="60"
         width="40"
         id="rect3050-0-95-6"
         style="fill:#ffffff;fill-opacity:1;stroke:#000000;stroke-width:1;stroke-linejoin:round;stroke-miterlimit:4;stroke-dasharray:none;stroke-opacity:1" />
      <text
         id="text4150-5"
         y="867.41309"
         x="673.03021"
         style="font-style:normal;font-variant:normal;font-weight:bold;font-stretch:normal;line-height:0%;font-family:Verdana;-inkscape-font-specification:'Verdana Bold';text-align:start;letter-spacing:0px;word-spacing:0px;writing-mode:lr-tb;text-anchor:start;fill:#ff0000;fill-opacity:1;stroke:none"
         xml:space="preserve"><tspan
           y="867.41309"
           x="673.03021"
           id="tspan4152-1"
           style="font-size:28px;line-height:1.25">?</tspan></text>
      <path
         id="path30-0"
         d="m 679.92009,897.81417 c -1.64997,-5.74498 -6.11886,-10.03944 -9.78139,-14.607 -1.91943,-2.30876 -3.73636,-5.29811 -2.92649,-8.38314 0.93499,-3.25114 4.88046,-5.06618 8.09498,-3.99452 2.14715,0.65157 3.88697,2.346 4.71632,4.37157 0.74028,-1.11434 1.32156,-2.36964 2.46728,-3.15988 2.75288,-2.25983 7.382,-1.91705 9.56285,0.95373 1.60647,2.01793 1.26275,4.83462 0.18395,7.00548 -1.78465,3.75778 -5.04152,6.53692 -7.50712,9.84164 -1.86578,2.38567 -3.54282,4.98209 -4.4109,7.88674 -0.0595,0.13843 -0.29562,0.2453 -0.39948,0.0853 z"
         style="fill:#ff0000;fill-opacity:1" />
    </g>
  </g>
</svg>
