<?xml version="1.0" encoding="UTF-8" standalone="no"?>
<!-- Created with Inkscape (http://www.inkscape.org/) -->

<svg
   width="10.847917mm"
   height="16.139584mm"
   viewBox="0 0 10.847917 16.139584"
   version="1.1"
   id="heartjack"
   xmlns="http://www.w3.org/2000/svg"
   xmlns:svg="http://www.w3.org/2000/svg">
  <defs
     id="defs3608" />
  <g
     id="layer1"
     transform="translate(118.99332,-168.55385)">
    <g
       id="g7721"
       transform="matrix(0.26458333,0,0,0.26458333,-253.79853,-54.188848)">
      <rect
         rx="10"
         ry="12"
         y="842.36218"
         x="510"
         height="60"
         width="40"
         id="rect3050-0-85-2"
         style="fill:#ffffff;fill-opacity:1;stroke:#000000;stroke-width:1;stroke-linejoin:round;stroke-miterlimit:4;stroke-dasharray:none;stroke-opacity:1" />
      <text
         id="text3025-07"
         y="867.09875"
         x="523.71936"
         style="font-style:normal;font-variant:normal;font-weight:bold;font-stretch:normal;line-height:0%;font-family:Verdana;-inkscape-font-specification:'Verdana Bold';text-align:start;letter-spacing:0px;word-spacing:0px;writing-mode:lr-tb;text-anchor:start;fill:#ff0000;fill-opacity:1;stroke:none"
         xml:space="preserve"><tspan
           y="867.09875"
           x="523.71936"
           id="tspan3027-3"
           style="font-size:28px;line-height:1.25">J</tspan></text>
      <path
         id="path30-62"
         d="m 529.91242,897.90118 c -1.64995,-5.74498 -6.11885,-10.03946 -9.78138,-14.60701 -1.91943,-2.30877 -3.73636,-5.29811 -2.92648,-8.38315 0.93498,-3.25114 4.88045,-5.06618 8.09497,-3.99453 2.14715,0.65158 3.88697,2.34601 4.71633,4.37157 0.74028,-1.11432 1.32155,-2.36964 2.46728,-3.15987 2.75287,-2.25984 7.38199,-1.91705 9.56284,0.95372 1.60648,2.01794 1.26276,4.83464 0.18396,7.0055 -1.78465,3.75777 -5.04154,6.53691 -7.50712,9.84163 -1.86578,2.38568 -3.54283,4.98205 -4.41091,7.88679 -0.0596,0.13834 -0.29561,0.24523 -0.39949,0.0853 z"
         style="fill:#ff0000;fill-opacity:1" />
    </g>
  </g>
</svg>
