<?xml version="1.0" encoding="UTF-8" standalone="no"?>
<!-- Created with Inkscape (http://www.inkscape.org/) -->

<svg
   width="10.847917mm"
   height="16.139584mm"
   viewBox="0 0 10.847917 16.139584"
   version="1.1"
   id="heartqueen"
   xmlns="http://www.w3.org/2000/svg"
   xmlns:svg="http://www.w3.org/2000/svg">
  <defs
     id="defs3666" />
  <g
     id="layer1"
     transform="translate(93.914907,-108.72394)">
    <g
       id="g7715"
       transform="matrix(0.26458333,0,0,0.26458333,-241.94928,-114.01876)">
      <rect
         rx="10"
         ry="12"
         y="842.36218"
         x="560"
         height="60"
         width="40"
         id="rect3050-0-1-01"
         style="fill:#ffffff;fill-opacity:1;stroke:#000000;stroke-width:1;stroke-linejoin:round;stroke-miterlimit:4;stroke-dasharray:none;stroke-opacity:1" />
      <text
         transform="scale(1.0623652,0.94129589)"
         id="text3029-4"
         y="917.11328"
         x="535.75085"
         style="font-style:normal;font-variant:normal;font-weight:bold;font-stretch:normal;line-height:0%;font-family:Verdana;-inkscape-font-specification:'Verdana Bold';text-align:start;letter-spacing:0px;word-spacing:0px;writing-mode:lr-tb;text-anchor:start;fill:#ff0000;fill-opacity:1;stroke:none"
         xml:space="preserve"><tspan
           y="917.11328"
           x="535.75085"
           id="tspan3031-9"
           style="font-size:26.3563px;line-height:1.25">Q</tspan></text>
      <path
         id="path30-95"
         d="m 580.42006,897.90118 c -1.64996,-5.74498 -6.11886,-10.03946 -9.78139,-14.60701 -1.91943,-2.30877 -3.73636,-5.29811 -2.92648,-8.38315 0.93498,-3.25114 4.88045,-5.06618 8.09497,-3.99453 2.14715,0.65158 3.88697,2.34601 4.71633,4.37157 0.74029,-1.11432 1.32155,-2.36964 2.46727,-3.15987 2.75288,-2.25984 7.382,-1.91705 9.56285,0.95372 1.60648,2.01794 1.26276,4.83464 0.18395,7.0055 -1.78464,3.75777 -5.04152,6.53691 -7.50712,9.84163 -1.86578,2.38568 -3.54281,4.98205 -4.4109,7.88679 -0.0595,0.13834 -0.29562,0.24523 -0.39948,0.0853 z"
         style="fill:#ff0000;fill-opacity:1" />
    </g>
  </g>
</svg>
