<?xml version="1.0" encoding="UTF-8" standalone="no"?>
<!-- Created with Inkscape (http://www.inkscape.org/) -->

<svg
   width="10.847917mm"
   height="16.139584mm"
   viewBox="0 0 10.847917 16.139584"
   version="1.1"
   id="heartace"
   xmlns="http://www.w3.org/2000/svg"
   xmlns:svg="http://www.w3.org/2000/svg">
  <defs
     id="defs2976" />
  <g
     id="layer1"
     transform="translate(41.966781,-120.90488)">
    <g
       id="g7597"
       transform="matrix(0.26458333,0,0,0.26458333,-44.480308,-101.83782)">
      <rect
         rx="10"
         ry="12"
         y="842.36218"
         x="9.9999456"
         height="60"
         width="40"
         id="rect3050-09"
         style="fill:#ffffff;fill-opacity:1;stroke:#000000;stroke-width:1;stroke-linejoin:round;stroke-miterlimit:4;stroke-dasharray:none;stroke-opacity:1" />
      <path
         id="path30"
         d="m 29.654267,897.8165 c -1.64996,-5.74499 -6.118857,-10.03947 -9.78139,-14.60702 -1.91943,-2.30876 -3.736363,-5.29811 -2.926481,-8.38314 0.934982,-3.25115 4.880458,-5.06618 8.094974,-3.99454 2.14715,0.65158 3.886972,2.34602 4.716323,4.37157 0.740286,-1.11432 1.321552,-2.36964 2.467283,-3.15987 2.752876,-2.25983 7.381991,-1.91705 9.562845,0.95373 1.606473,2.01793 1.262756,4.83463 0.183952,7.00549 -1.784648,3.75778 -5.04153,6.53692 -7.507123,9.84164 -1.865773,2.38567 -3.542819,4.98205 -4.410899,7.88678 -0.05951,0.13835 -0.295618,0.24523 -0.399484,0.0853 z"
         style="fill:#ff0000;fill-opacity:1" />
      <text
         id="text2985-9"
         y="867.41309"
         x="19.62925"
         style="font-style:normal;font-variant:normal;font-weight:bold;font-stretch:normal;line-height:0%;font-family:Verdana;-inkscape-font-specification:'Verdana Bold';text-align:start;letter-spacing:0px;word-spacing:0px;writing-mode:lr-tb;text-anchor:start;fill:#ff0000;fill-opacity:1;stroke:none"
         xml:space="preserve"><tspan
           y="867.41309"
           x="19.62925"
           id="tspan2987-6"
           style="font-size:28px;line-height:1.25">A</tspan></text>
    </g>
  </g>
</svg>
