<svg xmlns="http://www.w3.org/2000/svg" xmlns:xlink="http://www.w3.org/1999/xlink" version="1.1"
	x="0px" y="0px" viewBox="0 0 100 125" style="enable-background:new 0 0 100 100;"
	xml:space="preserve">
	<path d="M50.0000381,2.5C23.7664719,2.5,2.5,23.7664719,2.5,49.9999619C2.5,76.2335281,23.7664719,97.5,50.0000381,97.5  C76.2335281,97.5,97.5,76.2335281,97.5,49.9999619C97.4529648,23.7859497,76.2140503,2.5470359,50.0000381,2.5z   M94.2937775,48.4166679h-9.4999924c-0.2248383-5.0376091-1.5488663-9.9649925-3.8791504-14.4368134l8.2332611-4.7500324  C92.3020325,35.1500931,94.0620651,41.7126389,94.2937775,48.4166679z M87.5582581,26.487463l-8.2333374,4.7500343  c-2.72258-4.2395077-6.3260803-7.8430099-10.5655899-10.565588l4.7500381-8.2333422  C79.1880417,16.0069637,83.9898682,20.8087902,87.5582581,26.487463z M51.5833321,5.7062259  c6.7055397,0.2304988,13.2697411,1.9900084,19.1916008,5.1442904l-4.7500305,8.2332659  c-4.4733315-2.3304329-9.4024506-3.6539354-14.4415703-3.8775644V5.7062259z M48.4166679,5.7062259v9.4999924  c-5.0375366,0.2248373-9.9649925,1.5488672-14.4368134,3.8791513l-4.7500324-8.2332668  C35.1500931,7.6979709,41.7126389,5.937933,48.4166679,5.7062259z M26.4875393,12.4417381l4.749958,8.2333431  c-4.2394314,2.7225761-7.8430099,6.3260803-10.565588,10.565588l-8.2333422-4.7500343  C16.0069637,20.8119602,20.8088646,16.0101337,26.4875393,12.4417381z M10.8505163,29.2250652l8.2333422,4.7500362  c-2.3305092,4.4733276-3.6539364,9.4024467-3.8776407,14.4415665H5.7062259  C5.9367247,41.7111282,7.6962342,35.1468468,10.8505163,29.2250652z M5.7062259,51.5833321h9.4999924  c0.2248373,5.0376091,1.5488672,9.9649925,3.8792257,14.4368095l-8.2333412,4.7500381  C7.6979709,64.8499069,5.937933,58.2873611,5.7062259,51.5833321z M12.4417381,73.5124588l8.2333431-4.7499542  c2.7225761,4.2394333,6.3261547,7.8430099,10.565588,10.5655823l-4.7500343,8.233345  C20.8120365,83.9930344,16.0101337,79.1911316,12.4417381,73.5124588z M48.4166679,94.2937775  c-6.7055397-0.2304993-13.2697449-1.9900131-19.1916027-5.1442947l4.7500362-8.233345  c4.4734039,2.330513,9.402523,3.6539383,14.4415665,3.8776474V94.2937775z M18.3333206,49.9999619  c0-17.4890175,14.1777-31.6666412,31.6667175-31.6666412s31.6666412,14.1776237,31.6666412,31.6666412  c-0.0200806,17.4807129-14.1860046,31.646637-31.6666412,31.6667175  C32.5110207,81.6666794,18.3333206,67.4889832,18.3333206,49.9999619z M51.5833321,94.2937775v-9.4999924  c5.0376091-0.2248383,9.9649925-1.5488663,14.4368095-3.8792267l4.7500381,8.2333374  C64.8499069,92.3020325,58.2873611,94.0620651,51.5833321,94.2937775z M73.5125351,87.5582581l-4.7500305-8.2333374  c4.239502-2.72258,7.8430099-6.3261566,10.5655823-10.5655899l8.233345,4.7500381  C83.9930344,79.1879654,79.1912079,83.9898682,73.5125351,87.5582581z M89.1494827,70.7749329l-8.2332687-4.7500305  c2.3304367-4.4734077,3.6539383-9.4025269,3.8775711-14.4415703h9.4999924  C94.0633469,58.2888718,92.3037643,64.8530731,89.1494827,70.7749329z"/>
</svg>