<svg xmlns="http://www.w3.org/2000/svg" 
    xmlns:xlink="http://www.w3.org/1999/xlink" 
    version="1.1"
    x="0px" y="0px" 
    viewBox="0 0 100 125" 
    style="enable-background:new 0 0 100 100;"
    xml:space="preserve">
    <g>
        <path d="M98.3,63c0.1-0.5,0.2-0.9,0.3-1.4c0.1-0.3,0.1-0.6,0.2-0.8c0.1-0.4,0.2-0.8,0.3-1.2c0.1-0.4,0.1-0.7,0.2-1.1   c0.1-0.4,0.1-0.7,0.2-1.1c0.1-0.5,0.1-0.9,0.2-1.4c0-0.3,0.1-0.6,0.1-0.8c0,0,0,0,0,0l0,0c0.2-1.6,0.2-3.3,0.2-5s-0.1-3.4-0.2-5   l0,0c0,0,0,0,0,0c0-0.3-0.1-0.6-0.1-0.8c-0.1-0.5-0.1-1-0.2-1.4c-0.1-0.4-0.1-0.7-0.2-1.1c-0.1-0.4-0.1-0.7-0.2-1.1   c-0.1-0.4-0.2-0.8-0.3-1.2c-0.1-0.3-0.1-0.6-0.2-0.8c-0.1-0.5-0.2-0.9-0.3-1.4c0-0.1-0.1-0.2-0.1-0.3c-1.8-6.4-4.8-12.4-8.8-17.5   c0,0,0,0-0.1-0.1c-2.5-3.2-5.3-6-8.5-8.5c0,0,0,0-0.1-0.1c-5.1-4-11-7-17.5-8.8c-0.1,0-0.2-0.1-0.3-0.1c-0.5-0.1-0.9-0.2-1.4-0.3   c-0.3-0.1-0.6-0.1-0.8-0.2c-0.4-0.1-0.8-0.2-1.2-0.3c-0.4-0.1-0.7-0.1-1.1-0.2c-0.4-0.1-0.7-0.1-1.1-0.2c-0.5-0.1-0.9-0.1-1.4-0.2   c-0.3,0-0.6-0.1-0.8-0.1c0,0,0,0,0,0l0,0C53.4,0.1,51.7,0,50,0s-3.4,0.1-5,0.2l0,0c0,0,0,0,0,0c-0.3,0-0.6,0.1-0.8,0.1   c-0.5,0.1-1,0.1-1.4,0.2c-0.4,0.1-0.7,0.1-1.1,0.2c-0.4,0.1-0.7,0.1-1.1,0.2c-0.4,0.1-0.8,0.2-1.2,0.3c-0.3,0.1-0.6,0.1-0.8,0.2   C38,1.5,37.5,1.6,37,1.7c-0.1,0-0.2,0.1-0.3,0.1c-2.5,0.7-4.9,1.6-7.3,2.6c0,0,0,0,0,0l0,0c-3.7,1.7-7.1,3.7-10.2,6.2   c0,0,0,0-0.1,0.1c-3.2,2.5-6,5.3-8.5,8.5c0,0,0,0-0.1,0.1c-0.4,0.5-0.8,1-1.2,1.6c0,0,0,0,0,0l0,0c-3.4,4.8-6,10.1-7.6,15.9   c0,0.1-0.1,0.2-0.1,0.3c-0.1,0.5-0.2,0.9-0.3,1.4c-0.1,0.3-0.1,0.6-0.2,0.8c-0.1,0.4-0.2,0.8-0.3,1.2c-0.1,0.4-0.1,0.7-0.2,1.1   c-0.1,0.4-0.1,0.7-0.2,1.1c-0.1,0.5-0.1,0.9-0.2,1.4c0,0.3-0.1,0.6-0.1,0.8c0,0,0,0,0,0l0,0C0.1,46.6,0,48.3,0,50s0.1,3.4,0.2,5   l0,0c0,0,0,0,0,0c0,0.3,0.1,0.6,0.1,0.8c0.1,0.5,0.1,1,0.2,1.4c0.1,0.4,0.1,0.7,0.2,1.1c0.1,0.4,0.1,0.7,0.2,1.1   c0.1,0.4,0.2,0.8,0.3,1.2c0.1,0.3,0.1,0.6,0.2,0.8C1.5,62,1.6,62.5,1.7,63c0,0.1,0.1,0.2,0.1,0.3c0.7,2.5,1.6,4.9,2.6,7.3   c0,0,0,0,0,0l0,0c1.7,3.7,3.7,7.1,6.2,10.2c0,0,0,0,0.1,0.1c2.5,3.2,5.3,6,8.5,8.5c0,0,0,0,0.1,0.1c3.1,2.5,6.6,4.5,10.2,6.2l0,0   c0,0,0,0,0,0c2.3,1.1,4.8,1.9,7.3,2.6c0.1,0,0.2,0.1,0.3,0.1c0.5,0.1,0.9,0.2,1.4,0.3c0.3,0.1,0.6,0.1,0.8,0.2   c0.4,0.1,0.8,0.2,1.2,0.3c0.4,0.1,0.7,0.1,1.1,0.2c0.4,0.1,0.7,0.1,1.1,0.2c0.5,0.1,0.9,0.1,1.4,0.2c0.3,0,0.6,0.1,0.8,0.1   c0,0,0,0,0,0l0,0c1.6,0.2,3.3,0.2,5,0.2s3.4-0.1,5-0.2l0,0c0,0,0,0,0,0c0.3,0,0.6-0.1,0.8-0.1c0.5-0.1,1-0.1,1.4-0.2   c0.4-0.1,0.7-0.1,1.1-0.2c0.4-0.1,0.7-0.1,1.1-0.2c0.4-0.1,0.8-0.2,1.2-0.3c0.3-0.1,0.6-0.1,0.8-0.2c0.5-0.1,0.9-0.2,1.4-0.3   c0.1,0,0.2-0.1,0.3-0.1c6.5-1.8,12.4-4.8,17.5-8.8c0,0,0,0,0.1-0.1c3.2-2.5,6-5.3,8.5-8.5c0,0,0,0,0.1-0.1   c2.5-3.1,4.5-6.6,6.2-10.2l0,0c0,0,0,0,0,0c1.1-2.3,1.9-4.8,2.6-7.3C98.2,63.2,98.3,63.1,98.3,63z M99,50c0,1.7-0.1,3.4-0.3,5h-9.1   c0.2-1.6,0.3-3.3,0.3-5c0-1.7-0.1-3.4-0.3-5h9.1C98.9,46.6,99,48.3,99,50z M65.5,86.9C65.5,86.9,65.5,86.9,65.5,86.9   c3.1-1.3,6-3,8.7-5c0,0,0,0,0,0l4.5,7.8c-2.7,2-5.6,3.6-8.7,5L65.5,86.9z M50,89c-21.5,0-39-17.5-39-39c0-21.5,17.5-39,39-39   c21.5,0,39,17.5,39,39C89,71.5,71.5,89,50,89z M70,5.3c3.1,1.4,6,3.1,8.7,5l-4.5,7.8c0,0,0,0,0,0c-2.6-2-5.6-3.7-8.7-5c0,0,0,0,0,0   L70,5.3z M89.7,21.3c2,2.7,3.6,5.6,5,8.7l-7.8,4.5c0,0,0,0,0,0c-1.3-3.1-3-6-5-8.7c0,0,0,0,0,0L89.7,21.3z M50,1   c1.7,0,3.4,0.1,5,0.3v9.1c-1.6-0.2-3.3-0.3-5-0.3s-3.4,0.1-5,0.3V1.3C46.6,1.1,48.3,1,50,1z M34.5,13.1c-3.1,1.3-6,3-8.7,5   c0,0,0,0,0,0l-4.5-7.8c2.7-2,5.6-3.6,8.7-5L34.5,13.1z M18.1,25.8c-2,2.6-3.7,5.5-5,8.7c0,0,0,0,0,0L5.3,30c1.4-3.1,3.1-6,5-8.7   L18.1,25.8z M1,50c0-1.7,0.1-3.4,0.3-5h9.1c-0.2,1.6-0.3,3.3-0.3,5c0,1.7,0.1,3.4,0.3,5H1.3C1.1,53.4,1,51.7,1,50z M13.1,65.5   c1.3,3.1,3,6,5,8.7c0,0,0,0,0,0l-7.8,4.5c-2-2.7-3.6-5.6-5-8.7L13.1,65.5C13.1,65.5,13.1,65.5,13.1,65.5z M21.3,89.7l4.5-7.8   c0,0,0,0,0,0c2.6,2,5.6,3.7,8.7,5L30,94.7C26.9,93.3,24,91.6,21.3,89.7z M50,99c-1.7,0-3.4-0.1-5-0.3v-9.1c1.6,0.2,3.3,0.3,5,0.3   s3.4-0.1,5-0.3v9.1C53.4,98.9,51.7,99,50,99z M89.7,78.7l-7.8-4.5c2-2.6,3.7-5.6,5-8.7c0,0,0,0,0,0l7.8,4.5   C93.3,73.1,91.6,76,89.7,78.7z"/>
    </g>
    <text x="0" y="115" fill="#000000" font-size="5px" font-weight="bold" font-family="'Helvetica Neue', Helvetica, Arial-Unicode, Arial, Sans-serif">Created by Linh Nguyen</text>
    <text x="0" y="120" fill="#000000" font-size="5px" font-weight="bold" font-family="'Helvetica Neue', Helvetica, Arial-Unicode, Arial, Sans-serif">from the Noun Project</text>
</svg>